<?xml version="1.0" encoding="UTF-8"?>
<svg width="24px" height="24px" viewBox="0 0 24 24" version="1.1" xmlns="http://www.w3.org/2000/svg" xmlns:xlink="http://www.w3.org/1999/xlink">
    <title>认证icon</title>
    <g id="页面-1" stroke="none" stroke-width="1" fill="none" fill-rule="evenodd">
        <g id="广场界面" transform="translate(-763.000000, -461.000000)">
            <g id="编组-16" transform="translate(88.000000, 0.000000)">
                <g id="编组-9" transform="translate(58.000000, 368.000000)">
                    <g id="编组-21" transform="translate(0.000000, 34.000000)">
                        <g id="编组-13备份-2" transform="translate(496.000000, 0.000000)">
                            <g id="编组-23" transform="translate(121.000000, 59.000000)">
                                <path d="M12.0000018,2 C13.0232165,2 14.0464457,2.39038404 14.8271864,3.17114475 L14.8271864,3.17114475 L15.267142,3.61100965 C15.3615608,3.70509358 15.4890169,3.7584093 15.6223842,3.7584093 L15.6223842,3.7584093 L16.243438,3.7584093 C17.3476992,3.7584093 18.3472109,4.20588177 19.070677,4.92936714 C19.7941426,5.65285208 20.2415977,6.65238745 20.2415977,7.75664898 L20.2415977,7.75664898 L20.2415977,8.37771277 C20.2415977,8.5104316 20.2940915,8.63794688 20.3879307,8.73178609 L20.3879307,8.73178609 L20.8287807,9.17274609 C21.6096202,9.9535856 22,10.976819 22,12.0000303 C22,13.0232437 21.6096187,14.0464756 20.8288609,14.8272267 L20.8288609,14.8272267 L20.3890974,15.267088 C20.2950134,15.3615068 20.2415977,15.4889453 20.2415977,15.6223302 L20.2415977,15.6223302 L20.2415977,16.243384 C20.2415977,17.3476447 19.7941427,18.347186 19.0706767,19.0706762 C18.34721,19.794167 17.3476983,20.2416437 16.243438,20.2416437 L16.243438,20.2416437 L15.6223842,20.2416437 C15.4896831,20.2416437 15.3621501,20.2940375 15.268319,20.3878687 L15.268319,20.3878687 L14.82727,20.8288177 C14.0464457,21.609662 13.0232165,22.000046 12.0000018,22.000046 C10.9767936,22.000046 9.95355983,21.6096665 9.17275216,20.8288588 L9.17275216,20.8288588 L8.73289896,20.3890434 C8.63849435,20.2949735 8.51109,20.2416437 8.37773677,20.2416437 L8.37773677,20.2416437 L7.75671298,20.2416437 C6.65245935,20.2416437 5.65290279,19.7941676 4.92939668,19.0706735 C4.20589029,18.3471792 3.7584033,17.3476375 3.7584033,16.243384 L3.7584033,16.243384 L3.7584033,15.6223302 C3.7584033,15.4896362 3.7060495,15.3620961 3.61233136,15.268378 L3.61233136,15.268378 L3.17122231,14.8273099 C2.39038128,14.0464756 2,13.0232437 2,12.0000303 C2,10.976819 2.39037978,9.9535856 3.17124414,9.17272124 L3.17124414,9.17272124 L3.61104365,8.73295497 C3.70512759,8.63853621 3.7584033,8.51107309 3.7584033,8.37771277 L3.7584033,8.37771277 L3.7584033,7.75664898 C3.7584033,6.65239465 4.20589037,5.65285887 4.92939632,4.92936981 C5.65290188,4.20588114 6.65245839,3.7584093 7.75671298,3.7584093 L7.75671298,3.7584093 L8.37773677,3.7584093 L9.17272009,3.17121929 C9.95355983,2.39037955 10.9767936,2 12.0000018,2 Z" id="路径" stroke="#FFFFFF" stroke-width="2" fill="#6647FF"></path>
                                <path d="M15.850956,10.8789487 L11.4871702,15.0436672 C11.3278928,15.1956798 11.1183994,15.2727273 10.9089387,15.2727273 C10.699478,15.2727273 10.4899846,15.196721 10.3307072,15.0436672 L8.1488252,12.9613131 C7.82917948,12.6562467 7.82917948,12.1616852 8.1488252,11.8566188 C8.46848182,11.5515524 8.98671154,11.5515524 9.30635725,11.8566188 L10.9100078,13.3871567 L14.6955404,9.77425434 C15.0151861,9.46918795 15.5333831,9.46918795 15.8530288,9.77425434 C16.1704927,10.0793207 16.1706018,10.5749235 15.850956,10.8789487 Z" id="路径" fill="#FFFFFF"></path>
                            </g>
                        </g>
                    </g>
                </g>
            </g>
        </g>
    </g>
</svg>